<svg xmlns="http://www.w3.org/2000/svg" xmlns:xlink="http://www.w3.org/1999/xlink" width="317" height="291" viewBox="0 0 317 291">
    <defs>
        <path id="a" d="M.34.812h167.842v105.124H.34z"/>
        <path id="c" d="M.841 10.117c0 5.393 4.37 9.763 9.762 9.763 5.377 0 9.747-4.37 9.747-9.763 0-5.392-4.37-9.747-9.747-9.747C5.211.37.841 4.725.841 10.117"/>
        <radialGradient id="d" cx="49.998%" cy="49.998%" r="50.001%" fx="49.998%" fy="49.998%" gradientTransform="matrix(1 0 0 .99996 0 0)">
            <stop offset="0%" stop-color="#FD97A3"/>
            <stop offset="100%" stop-color="#FDC6B8"/>
        </radialGradient>
        <path id="f" d="M.854 2.507C2.396 7.547 1.999 13.292 2.76 18.61a9.73 9.73 0 0 0 4.442 1.066c5.376 0 9.746-4.37 9.746-9.763 0-5.391-4.37-9.747-9.746-9.747a9.74 9.74 0 0 0-6.35 2.34"/>
        <radialGradient id="g" cx="39.396%" cy="50.002%" r="60.605%" fx="39.396%" fy="50.002%" gradientTransform="matrix(1 0 0 .82499 0 .088)">
            <stop offset="0%" stop-color="#FD97A3"/>
            <stop offset="100%" stop-color="#FDC6B8"/>
        </radialGradient>
        <path id="i" d="M85.082.88L26.13 41.729 4.612 28.061C4.35 34.602 3.415 43.23.341 53.905c0 0 61.28 52.008 117.613 52.03h.065c16.146-.005 31.882-4.284 45.652-15.288 8.698-6.95 3.544-38.522 0-60.972-16.103 2.561-32.343 1.866-58.09-14.39-6.527-4.134-13.57-9.157-20.444-14.473l-.055.069z"/>
    </defs>
    <g fill="none" fill-rule="evenodd">
        <g transform="translate(117.386 240.584)">
            <mask id="b" fill="#fff">
                <use xlink:href="#a"/>
            </mask>
            <path fill="#795193" d="M105.582 15.285c25.745 16.255 41.987 16.951 58.09 14.39 2.601 19.24 8.696 54.022 0 60.972C101.844 140.054.34 53.905.34 53.905 3.416 43.23 4.348 34.602 4.613 28.06l21.516 13.666L85.082.881l.055-.07c6.875 5.317 13.917 10.34 20.445 14.474" mask="url(#b)"/>
        </g>
        <path fill="#232323" d="M223.802 78.65l-1.313 2.03a14.322 14.322 0 0 1-3.872 3.995l-3.698 2.561-3.48-11.627 9.046-5.305 3.317 8.346z"/>
        <path fill="#34386E" d="M222.076 125.383c.18-3.953.334-7.92.46-11.885 2.045.125 4.021.264 5.928.445-.78 25.413-3.049 53.261-5.929 83.07-1.92-1.098-3.84-2.17-5.79-3.185v-.015c2.45-25.3 4.343-46.928 5.331-68.43"/>
        <path fill="#FEFFF7" d="M222.076 125.383c-.988 21.502-2.881 43.13-5.33 68.43a118.104 118.104 0 0 0-6.792-3.312 83.45 83.45 0 0 0-4.454-1.851c-.18.557-.361 1.127-.584 1.712-9.101-5.79-15.53-10.8-22.977-16.116-.64-18.941-.5-32.093.348-50.547h.126c2.032 8.1 11.398 12.776 19.678 11.733 8.072-1.018 14.627-4.064 19.985-10.05"/>
        <path fill="#34386E" d="M204.916 190.362c.223-.585.404-1.155.585-1.712a83.45 83.45 0 0 1 4.453 1.85c-1.795 14.1-12.915 30.159-24.146 37.16a321.89 321.89 0 0 1-4.718-4.217c4.565-3.313 9.353-8.546 13.556-14.363 4.412-6.11 8.17-12.86 10.27-18.718"/>
        <path fill="#FE97A3" d="M183.637 117.687c-.181.055-.376.083-.557.111l-.556-.014c.014-.654 0-1.294-.015-1.948a60.787 60.787 0 0 0-1.071-9.784l.056-.542c.627.042 1.252.069 1.879.083 9.88.11 20.29-5.956 24.786-14.752-2.394 5.97-5.052 11.94-9.088 16.95-3.91 4.857-9.297 8.796-15.434 9.896"/>
        <path fill="#795193" d="M202.523 241.396l-.055.07-68.82-45.523.695-1.044c.64.487 1.503.751 2.31.724 1.433-.057 2.728-.78 3.98-1.462.905-.5 1.795-1.002 2.7-1.503l.237.431c-1.016.794-2.06 1.615-2.658 2.756-.585 1.155-.558 2.714.404 3.563 1.21 1.085 3.13.53 4.607-.167a50.69 50.69 0 0 0 3.325-1.711c-.696 1.07-.878 2.408.07 3.186.682.57 1.697.57 2.575.417 5.05-.904 9.24-5.678 14.32-4.982 4.703.64 7.473 5.65 11.746 7.738 5.288 2.589 12.706.654 16.575 5.107l.112.084c-4.203 5.817-8.991 11.05-13.555 14.363a321.744 321.744 0 0 0 4.717 4.217 364.06 364.06 0 0 0 16.715 13.736"/>
        <path fill="#FEC6B9" d="M232.277 60.529a7.086 7.086 0 0 0-2.296-1.907c-.904-.473-1.907-.751-2.937-.737-1.725 0-1.716-6.964-3.08-5.906-1.308 1.044-4.045-1.062-5.102.233l-2.116 5.798c-3.201 2.908.946 4.19-3.201 2.908l-1.792-2.825c3.855-3.567.985-.8 1.114-6.051.054-2.164.013-3.614-.094-5.107-.267-3.706.347-7.656-2.927-12.41-2.31-3.354-8.743-4.322-11.986-1.857-.64.486-1.28 1.112-2.087 1.182-.668.07-1.308-.264-1.893-.598-5.024-2.868-13.073-8.662-18.625-7.02-4.26 1.267-7.581 8.843-6.426 13.143-2.338-.612-2.923-.668-5.747.39-.028.014-.056.014-.084.028-3.758 1.406-6.655 6.034-8.388 9.634-4.055 8.432-1.426 12.315.407 16.273 3.496 7.553.981 17.292 4.585 24.793 4.023 8.321 12.679 14.21 21.892 15.016.626.042 1.252.07 1.88.084 9.88.112 20.29-5.956 24.785-14.753-2.393 5.97-5.052 11.941-9.088 16.951-3.91 4.857-10.424 6.945-16.562 8.045 1.893 7.542 10.425 14.418 18.162 13.235 9.437-1.434 18.677-6.708 21.864-15.573-3.688-10.689-6.666-23.02-5.539-34.264 3.229.529 8.613-.608 11.897-2.668 3.285-2.059 5.319-6.518 5.263-10.387-.028-2.018-.626-4.064-1.879-5.65M149.248 197.53a50.285 50.285 0 0 1-3.326 1.711c-1.475.696-3.396 1.253-4.607.167-.96-.849-.987-2.407-.403-3.563.598-1.142 1.642-1.962 2.658-2.755l-.237-.432c-.904.5-1.796 1.002-2.7 1.503-1.253.682-2.547 1.406-3.98 1.462a3.702 3.702 0 0 1-2.31-.724c-.473-.376-.836-.863-.946-1.462-.223-1.141.445-2.254 1.127-3.186a27.93 27.93 0 0 1 6.597-6.333l-.098-.195c-.083.042-.168.098-.25.14-1.698.931-3.55 1.878-5.525 1.252-1.308-.417-2.227-1.74-1.866-3.062.195-.724.654-1.252 1.239-1.614 3.118-1.948 6.305-3.786 9.116-6.165 1.753-1.476 3.507-2.965 5.26-4.453 3.758-3.16 8.35-5.206 13.236-5.749.306-.027.57-.055.765-.055 3.02-.042 5.943 1.531 7.919 2.783a223.903 223.903 0 0 1 5.344 3.493c1.99 1.35 3.869 2.658 5.678 3.952 7.446 5.317 13.875 10.327 22.977 16.117-2.1 5.859-5.858 12.609-10.27 18.718l-.112-.083c-3.869-4.454-11.287-2.519-16.575-5.108-4.273-2.087-7.042-7.098-11.746-7.738-5.08-.696-9.27 4.078-14.32 4.982-.877.154-1.894.154-2.576-.417-.946-.779-.765-2.115-.069-3.187"/>
        <path fill="#34386E" d="M182.51 115.836c.014.654.027 1.295.014 1.949a48.04 48.04 0 0 1-.098 3.144c-.042.933-.083 1.865-.139 2.77-.85 18.454-.988 31.605-.348 50.547a273.747 273.747 0 0 0-5.678-3.953l.39-.57c-.682-20.07-.515-33.596.444-53.568a44.96 44.96 0 0 1 4.733-.292l.681-.027z"/>
        <path fill="#795193" d="M176.651 169.723l-.39.57a224.056 224.056 0 0 0-5.344-3.493c-1.976-1.252-4.9-2.825-7.92-2.784-.194 0-.458.03-.765.056-4.885.543-9.477 2.59-13.235 5.748-1.753 1.49-3.507 2.978-5.26 4.454-2.812 2.38-5.998 4.217-9.116 6.165-.585.362-1.044.89-1.239 1.614-.362 1.322.558 2.644 1.866 3.062 1.976.626 3.827-.32 5.525-1.253.082-.041.166-.097.25-.139l.098.195a27.944 27.944 0 0 0-6.597 6.332c-.681.933-1.35 2.046-1.127 3.188.111.598.473 1.085.946 1.46l-.696 1.044-34.333-22.699.277-.417c14.433-11.412 16.673-18.037 29.978-30.826 13.25-12.734 29.463-23.965 47.527-25.845-.96 19.972-1.127 33.499-.445 53.568"/>
        <path fill="#232323" d="M186.542 66.848h-1.467a.206.206 0 0 1-.206-.206v-4.18c0-.114.092-.207.206-.207h1.467c.112 0 .205.093.205.207v4.18a.207.207 0 0 1-.205.206M169.757 66.848h-1.466a.206.206 0 0 1-.206-.206v-4.18c0-.114.092-.207.206-.207h1.466c.114 0 .206.093.206.207v4.18a.206.206 0 0 1-.206.206"/>
        <g transform="translate(182.173 65.484)">
            <mask id="e" fill="#fff">
                <use xlink:href="#c"/>
            </mask>
            <path fill="url(#d)" d="M.841 10.117c0 5.393 4.37 9.763 9.762 9.763 5.377 0 9.747-4.37 9.747-9.763 0-5.392-4.37-9.747-9.747-9.747C5.211.37.841 4.725.841 10.117" mask="url(#e)"/>
        </g>
        <path fill="#61BCCB" d="M222.535 113.497a860.786 860.786 0 0 1-.458 11.885c-5.36 5.985-11.914 9.033-19.986 10.05-8.28 1.043-17.647-3.634-19.678-11.733h-.126c.056-.905.098-1.837.14-2.77.07-1.058.097-2.101.097-3.145l-.015-1.948c.181-.028.49 1.35.922 2.482 2.116 5.516 9.894 11.38 17.24 10.753 6.078-.52 18.677-6.708 21.864-15.574"/>
        <g transform="translate(155.032 65.484)">
            <mask id="h" fill="#fff">
                <use xlink:href="#f"/>
            </mask>
            <path fill="url(#g)" d="M.854 2.507C2.396 7.547 1.999 13.292 2.76 18.61a9.73 9.73 0 0 0 4.442 1.066c5.376 0 9.746-4.37 9.746-9.763 0-5.391-4.37-9.747-9.746-9.747a9.74 9.74 0 0 0-6.35 2.34" mask="url(#h)"/>
        </g>
        <g>
            <path fill="#232323" d="M156.666 79.902l-.14.084c-4.536-2.172-7.445-7.321-6.972-12.318.153-1.642.627-3.27.404-4.885-.723-5.33-7.92-7.167-10.285-11.996-1.378-2.84-.807-6.36.919-9.005 1.725-2.658 4.453-4.508 7.32-5.83 2.06-.96 4.245-1.67 6.109-2.965a9.252 9.252 0 0 0 1.656-1.475c1.615-1.447 2.366-3.84 2.269-6.068-.139-2.797-1.322-5.414-2.338-8.002-1.03-2.602-1.935-5.4-1.447-8.156.654-3.855 4.021-6.875 7.793-7.905 3.772-1.043 7.836-.362 11.481 1.044 7.21 2.784 13.68 6.36 21.364 5.484 4.12-.473 7.974-.696 11.801-2.297 6.987-2.936 15.268-3.41 22.058-.013 6.778 3.395 11.566 11.078 10.397 18.565-.64 4.161-2.965 8.17-2.297 12.316.683 4.203 4.245 7.349 5.58 11.385 1.338 3.98.321 8.447-1.752 12.107-2.074 3.66-3.916 6.638-6.922 9.588h-.001c.275-4.65-1.638-8.129-4.074-9.712-3.155-2.053-7.536-2.49-10.24-1.378-3.91 1.607-5.442 6.847-8.865 9.338 1.001-5.553 1.268-9.715 1.419-15.829.103-4.212-.025-6.844-2.378-10.337-1.683-2.52-4.029-2.324-6.058-1.512-3.747 1.497-4.707 2.927-8.613 2.745-1.976-.091-4.26-2.122-5.514-3.653-1.477-1.807-1.83-3.807-5.098-6.32-2.261-1.74-9.626-1.798-12.184 2.736-.38.673-.716 1.366-.979 2.076-.733 1.985-1.363 2.726-2.61 4.204-.385.459-1.71 1.827-3.188 2.522-3.891 1.832-6.118 2.357-7.94 6.41-1.482 3.305-1.865 6.981-1.448 10.578.726 6.247 2.503 12.607 1.622 18.905-.334.084-.696-.125-.85-.431"/>
            <path fill="#601F1F" d="M176.295 89.357c3.812 2.209 7.88 1.048 10.582-2.279.368-.453-.276-1.105-.647-.648-2.433 2.997-5.97 4.167-9.472 2.136-.512-.295-.973.495-.463.791"/>
            <path stroke="#D87556" stroke-linecap="round" stroke-width=".795" d="M175.226 63.868c-.077 4.696-2.895 8.566-4.343 12.85-.19.563-.382 1.16-.261 1.742.605 2.91 6.67.796 7.378 3.683"/>
            <path stroke="#34386E" stroke-width="1.247" d="M199.966 62.774c0 6.601-4.757 11.953-10.625 11.953s-10.625-5.352-10.625-11.953c0-6.601 4.757-11.953 10.625-11.953s10.625 5.352 10.625 11.953z"/>
            <path stroke="#34386E" stroke-width="1.165" d="M172.77 64.963c0 6.601-4.151 11.953-9.272 11.953-5.12 0-9.273-5.352-9.273-11.953 0-6.602 4.152-11.954 9.273-11.954 5.12 0 9.271 5.352 9.271 11.954z"/>
            <path fill="#34386E" d="M173.513 66.707c1.261-1.18 3.253-1.293 4.612-.2.518.417 1.261-.318.738-.738-1.81-1.455-4.38-1.397-6.088.2-.49.46.247 1.197.738.738"/>
            <path fill="#FE97A3" d="M219.976 68.987c.178-1.216 1.24-2.337 2.568-2.097 1.303.237 1.917 1.743 1.57 2.903-.385 1.29 1.63 1.84 2.013.556.68-2.275-.664-4.898-3.029-5.47-2.332-.566-4.794 1.227-5.134 3.553-.193 1.314 1.818 1.882 2.012.555"/>
            <path fill="#424242" d="M226.47 28.284c-2.6 1.327-2.938 4.36-1.738 6.85.954 1.983 2.89 3.3 3.793 5.31 2.397 5.34-2.846 10.226-8.12 7.761-1.21-.565-2.27 1.234-1.054 1.803 4.145 1.936 9.21.849 11.193-3.596.873-1.957.973-4.17.217-6.18-.908-2.416-7.38-8.032-3.238-10.144 1.197-.612.142-2.413-1.053-1.804M149.692 39.068c-7.176 4.29-5.943 14.593 1.985 17.152 1.28.412 1.828-1.601.554-2.014-6.25-2.018-7.096-9.98-1.486-13.335 1.152-.69.103-2.495-1.053-1.803"/>
            <path fill="#61BCCB" d="M183.475 163.678c7.69-1.72 15.897-5.304 19.724-12.657 3.082-5.922 2.72-13.264-1.882-18.245-.458-.493-1.193.245-.739.738 4.87 5.27 4.512 13.339.473 19.016-4.144 5.822-11.123 8.637-17.854 10.141-.655.147-.378 1.153.278 1.007M201.672 187.417c-1.771-14.027 5.591-26.978 18.566-32.579.615-.266.084-1.165-.527-.9-13.279 5.73-20.896 19.13-19.082 33.479.082.657 1.127.666 1.043 0M215.614 143.078h.232c1.12 0 1.121-1.739 0-1.739h-.232c-1.12 0-1.121 1.74 0 1.74M193.73 173.905l.232-.232c.793-.793-.438-2.023-1.23-1.23l-.232.232c-.793.793.437 2.023 1.23 1.23"/>
            <path fill="#795193" d="M222.535 197.014c2.88-29.81 5.15-57.658 5.928-83.071 11.107 1.015 20.279 3.13 30.967 8.336 6.68 3.243 12.609 7.877 17.966 13.027 17.3 16.659 28.476 40.554 34.626 63.768 12.415 46.887-1.739 63.99-30.965 71.186-16.103 2.561-32.344 1.865-58.09-14.39-6.528-4.134-13.57-9.157-20.444-14.474a362.446 362.446 0 0 1-16.715-13.736c11.231-7 22.35-23.06 24.146-37.159a117.53 117.53 0 0 1 6.792 3.312v.014a168.573 168.573 0 0 1 5.79 3.187"/>
            <path fill="#34386E" d="M207.163 227.659a5.002 5.002 0 1 1-10.004 0 5.002 5.002 0 0 1 10.004 0"/>
        </g>
        <g transform="translate(117.386 240.584)">
            <mask id="j" fill="#fff">
                <use xlink:href="#i"/>
            </mask>
            <path fill="#614477" d="M68.422-12.925s79.085 84.713 103.473 74.973c16.476-6.581 31.175-25.517 31.175-25.517L159.928-3.044l-91.506-9.88z" mask="url(#j)"/>
        </g>
        <g>
            <path fill="#614477" d="M268.756 213.039c1.68-13.238 3.307-26.541 3.528-39.898.023-1.344-2.064-1.344-2.087 0-.22 13.357-1.85 26.66-3.53 39.898-.167 1.33 1.922 1.317 2.089 0"/>
            <path fill="#614477" d="M282.616 219.888a187.694 187.694 0 0 1-59.715-22.675s39.336 13.105 58.156 11.867c4.379-.288 6.591 1.143 7.627 3.103 2.095 3.966-1.664 8.56-6.068 7.705"/>
            <path fill="#050505" d="M204.298 188.984c-5.445 12.89-13.409 24.123-23.789 33.511-.998.904.482 2.377 1.477 1.477 10.506-9.504 18.6-20.881 24.114-33.934.517-1.223-1.28-2.289-1.802-1.054"/>
            <path fill="#614477" d="M122.535 269.46a175.53 175.53 0 0 1 19.774 12.626l60.214-40.69 20.444 14.474-74.343 31.009a5.123 5.123 0 0 1-5.169-.724l-20.92-16.696z"/>
            <path stroke="#FE97A3" stroke-linecap="round" stroke-width=".795" d="M141.023 183.723s12.776-7.65 14.864-10.665M143.515 192.904s12.775-7.65 14.863-10.665M148.994 197.99s12.776-7.649 14.864-10.665"/>
            <path fill="#050505" d="M181.259 115.671c-17.913.305-33.23 8.43-46.36 20.192-12.632 11.311-22.547 25.401-35.55 36.268-1.031.863.452 2.332 1.476 1.477 11.898-9.943 21.246-22.618 32.412-33.357 13.32-12.808 29.148-22.17 48.022-22.491 1.342-.024 1.346-2.111 0-2.089"/>
        </g>
        <g>
            <path fill="#F9B300" d="M62.93 161.378l47.699 32.517 34.548 92.264 61.016-42.505v-.58l-71.435-48.02-36.253-23.943-25.613-16.926z"/>
            <path fill="#FFDB43" d="M36.433 209.823l86.024 61.92 22.72 14.416-34.549-92.265-47.7-32.515L.62 118.909z"/>
            <g stroke-width="2.384">
                <path stroke="#050505" stroke-linecap="round" d="M122.458 271.743l21.446 14.178 33.53-22.635"/>
                <path stroke="#FFEFAB" d="M.62 118.91l110.009 74.985"/>
            </g>
        </g>
        <path fill="#050505" d="M181.342 224.756c28.088 24.464 60.881 51.692 100.665 46.631 1.315-.167 1.333-2.27 0-2.101-39.247 4.993-71.49-21.89-99.187-46.016-1.013-.881-2.496.6-1.478 1.486"/>
    </g>
</svg>
